<svg xmlns="http://www.w3.org/2000/svg" id="prefix__Layer_1" data-name="Layer 1" viewBox="0 0 155.26 143.05">
    <defs>
        <style>.cls-1{fill:#f60;fill-rule:evenodd}.cls-2{fill:#428bca}</style>
    </defs>
    <path class="cls-1" d="m125.67 135.25 5.38 1.44 10.3 2.76h10.01l-1.13-4.2h-24.56zM106.56 135.25H64.17a63.57 63.57 0 0 0 42.39 0zM101 126.27a68.44 68.44 0 0 1-10 4.2h58l-1.13-4.2zM122.76 108.3a65.118 65.118 0 0 1-3.64 4.2h25l-1.12-4.2zM128.21 31.66H131c-.28-.3-.55-.59-.84-.88a62.856 62.856 0 0 0-3.62-3.33h-1q1.46 2.07 2.67 4.21zM136.73 76.57h12c0-1.4 0-2.8-.07-4.2h-11.42c-.13 1.4-.24 2.81-.51 4.2zM108.81 121.49h37.73l-.06-.23-1.06-4h-31.25a66.47 66.47 0 0 1-5.36 4.23zM136.54 54.4c.24 1.4.45 2.8.6 4.2h9.26q-.59-2.12-1.32-4.2zM134.35 45.42c.44 1.39.84 2.79 1.19 4.2h7.63c-.64-1.42-1.34-2.82-2.08-4.2zM137.48 63.39c.06 1.4.08 2.8.05 4.2h10.66c-.18-1.41-.39-2.81-.66-4.2zM130.77 36.44q1 2.07 1.86 4.2h5.59c-.95-1.43-2-2.84-3-4.2zM135.79 81.35c-.32 1.41-.68 2.81-1.1 4.2h13.22c.22-1.39.39-2.79.52-4.2zM133.05 90.34q-.81 2.11-1.77 4.2h14.52c.43-1.39.82-2.79 1.16-4.2zM128.84 99.32c-.8 1.42-1.67 2.82-2.59 4.2h16q1-2.07 1.88-4.2z"/>
    <path class="cls-2" d="M114.45 21.22A63.35 63.35 0 0 0 13.12 94.6l-4.58 17.1-5.65 21.08L24 127.13l17.1-4.58a63.35 63.35 0 0 0 73.35-101.33zm-35.72 84.9H59.62v-17h19.11zM92.88 56a22 22 0 0 1-4.35 6.23c-1.7 1.68-3.41 3.28-5.12 4.83a22 22 0 0 0-4.34 5.45 13.92 13.92 0 0 0-1.79 7v3.86H61.07v-5.15a21.56 21.56 0 0 1 1.25-7.49 17.91 17.91 0 0 1 3.19-5.64q1.92-2.22 4.1-4.49c1.45-1.51 2.81-2.88 4.1-4.1a15.36 15.36 0 0 0 3.19-4.4 12.08 12.08 0 0 0 1.25-5.36A8.83 8.83 0 0 0 76 40.52a7.42 7.42 0 0 0-5.74-2.37q-7.72 0-11.78 11.39l-14.31-4.63A27.44 27.44 0 0 1 53 30.53q6.75-6 17.08-6 10.81 0 17.72 6.32t6.9 16.66A19.23 19.23 0 0 1 92.88 56z"/>
</svg>